<svg width="45" height="38" viewBox="0 0 45 38" fill="none" xmlns="http://www.w3.org/2000/svg">
<path fill-rule="evenodd" clip-rule="evenodd" d="M4.65551 18.6477C3.60891 17.0561 3 15.151 3 13.1037C3 7.52358 7.52358 3 13.1037 3C17.424 3 21.1109 5.71156 22.5556 9.52564C24.0002 5.71156 27.6871 3 32.0074 3C37.5875 3 42.1111 7.52358 42.1111 13.1037C42.1111 15.1527 41.5012 17.0593 40.4529 18.6517C36.6476 25.0937 26.6099 32.8805 22.5554 35.1039C18.5001 32.88 8.45909 25.0905 4.65551 18.6477Z" fill="white" fill-opacity="0.3"/>
<path d="M4.65551 18.6477L6.80834 17.3767C6.78785 17.342 6.76652 17.3078 6.74437 17.2741L4.65551 18.6477ZM22.5556 9.52564L20.2176 10.4111C20.5857 11.3829 21.5165 12.0256 22.5556 12.0256C23.5947 12.0256 24.5254 11.3829 24.8935 10.4111L22.5556 9.52564ZM40.4529 18.6517L38.3647 17.2772C38.3425 17.311 38.321 17.3454 38.3004 17.3802L40.4529 18.6517ZM22.5554 35.1039L21.3533 37.2959C22.1021 37.7065 23.0087 37.7065 23.7575 37.2959L22.5554 35.1039ZM0.5 13.1037C0.5 15.6539 1.26007 18.0343 2.56665 20.0213L6.74437 17.2741C5.95776 16.0779 5.5 14.6481 5.5 13.1037H0.5ZM13.1037 0.5C6.14287 0.5 0.5 6.14287 0.5 13.1037H5.5C5.5 8.90429 8.90429 5.5 13.1037 5.5V0.5ZM24.8935 8.64013C23.0929 3.88633 18.4969 0.5 13.1037 0.5V5.5C16.3511 5.5 19.1289 7.53678 20.2176 10.4111L24.8935 8.64013ZM32.0074 0.5C26.6142 0.5 22.0182 3.88633 20.2176 8.64013L24.8935 10.4111C25.9822 7.53678 28.7601 5.5 32.0074 5.5V0.5ZM44.6111 13.1037C44.6111 6.14287 38.9682 0.5 32.0074 0.5V5.5C36.2068 5.5 39.6111 8.90429 39.6111 13.1037H44.6111ZM42.5411 20.0263C43.8498 18.0383 44.6111 15.6561 44.6111 13.1037H39.6111C39.6111 14.6494 39.1526 16.0803 38.3647 17.2772L42.5411 20.0263ZM23.7575 37.2959C25.9964 36.0681 29.6685 33.4435 33.236 30.3481C36.7852 27.2685 40.4934 23.4986 42.6054 19.9232L38.3004 17.3802C36.6071 20.2468 33.3938 23.5914 29.9592 26.5715C26.5428 29.5358 23.1689 31.9162 21.3533 32.9119L23.7575 37.2959ZM23.7575 32.9119C21.9416 31.916 18.5666 29.5348 15.1496 26.5697C11.7142 23.5886 8.50071 20.2434 6.80834 17.3767L2.50268 19.9186C4.61389 23.4948 8.3227 27.2657 11.8726 30.3461C15.4408 33.4424 19.1139 36.0679 21.3533 37.2959L23.7575 32.9119Z" fill="white"/>
</svg>
